<svg version="1.1" xmlns="http://www.w3.org/2000/svg" xmlns:xlink="http://www.w3.org/1999/xlink" width="104.25" height="104.25" viewBox="0,0,104.25,104.25"><g transform="translate(-187.875,-127.875)"><g data-paper-data="{&quot;isPaintingLayer&quot;:true}" fill-rule="nonzero" stroke-linejoin="miter" stroke-miterlimit="10" stroke-dasharray="" stroke-dashoffset="0" style="mix-blend-mode: normal"><path d="M246.05,182.45v-4.9h21.1v4.9z" fill="#5a585e" stroke="#3f3e41" stroke-width="2" stroke-linecap="butt"/><path d="M229.1,180.14c0,0 4.51692,-1.89131 7.19554,-2.41987c3.38698,-0.66834 11.50446,-1.27013 11.50446,-1.27013v7.1c0,0 -8.24044,-0.30267 -11.63778,-0.92218c-2.64652,-0.4826 -7.06222,-2.48782 -7.06222,-2.48782z" fill="#5a585e" stroke="#3f3e41" stroke-width="2" stroke-linecap="butt"/><path d="M264.57702,184.25264c0,0 -3.45044,-0.9815 -1.83683,-5.02386c1.44906,-3.63014 4.41356,-2.4441 4.41356,-2.4441l15.73436,5.31636l-2.57673,7.46796z" fill="#5a585e" stroke="#3f3e41" stroke-width="2" stroke-linecap="butt"/><path d="M236.7,184.075v-7.9h14v7.9z" fill="#3f3e43" stroke="#2e2e30" stroke-width="2" stroke-linecap="butt"/><path d="M275.79021,187.76521l0.80023,-2.2458l-0.90585,-1.85107l1.76815,-0.56891l0.72209,-2.02652" data-paper-data="{&quot;index&quot;:null}" fill="none" stroke="#3f3e41" stroke-width="2" stroke-linecap="round"/><path d="M187.875,232.125v-104.25h104.25v104.25z" fill="none" stroke="#3f3e41" stroke-width="0" stroke-linecap="butt"/></g></g></svg>