<svg version="1.1" xmlns="http://www.w3.org/2000/svg" xmlns:xlink="http://www.w3.org/1999/xlink" width="47.69469" height="24.15576" viewBox="0,0,47.69469,24.15576"><g transform="translate(-217.51268,-167.92213)"><g data-paper-data="{&quot;isPaintingLayer&quot;:true}" fill-rule="nonzero" stroke-width="2" stroke-linejoin="miter" stroke-miterlimit="10" stroke-dasharray="" stroke-dashoffset="0" style="mix-blend-mode: normal"><path d="M218.51268,183.74553v-7.50686l1.2267,-1.3707l4.06997,-0.05606l0.00376,-4.05296h20.24395v18.4821h-20.24395l-0.0321,-4.11447l-3.88358,-0.07357z" fill="#3f3e43" stroke="#2e2e30" stroke-linecap="butt"/><path d="M238.62507,173.07788h3.47686" fill="none" stroke="#d45757" stroke-linecap="round"/><path d="M238.62507,175.44847h3.47686" fill="none" stroke="#161313" stroke-linecap="round"/><path d="M241.37497,169.02289l22.8324,2.19542v17.56339l-22.8324,2.19542z" fill="#5a585e" stroke="#3f3e41" stroke-linecap="butt"/><path d="M249.7202,175.37198c2.55599,0 4.62802,2.07204 4.62802,4.62802c0,2.55599 -2.07204,4.62802 -4.62802,4.62802c-2.55599,0 -4.62802,-2.07204 -4.62802,-4.62802c0,-2.55599 2.07204,-4.62802 4.62802,-4.62802z" fill="#3f3e41" stroke="#3f3e41" stroke-linecap="butt"/><path d="M248.10276,177.44582h10.73494v5.10835h-10.73494z" fill="#3f3e41" stroke="#3f3e41" stroke-linecap="butt"/><path d="M250.13547,175.40109l9.49154,1.99643l-0.66155,-0.0299" fill="none" stroke="#3f3e41" stroke-linecap="round"/><path d="M258.96546,182.59917l0.66155,-0.02989l-9.49155,1.99643" data-paper-data="{&quot;index&quot;:null}" fill="none" stroke="#3f3e41" stroke-linecap="round"/><path d="M249.81384,177.58622c1.33309,0 2.41378,1.08068 2.41378,2.41378c0,1.33309 -1.08068,2.41378 -2.41378,2.41378c-1.33309,0 -2.41378,-1.08068 -2.41378,-2.41378c0,-1.33309 1.08068,-2.41378 2.41378,-2.41378z" fill="#9b6f5b" stroke="#90695e" stroke-linecap="butt"/></g></g></svg>
