<svg version="1.1" xmlns="http://www.w3.org/2000/svg" xmlns:xlink="http://www.w3.org/1999/xlink" width="104.25" height="104.25" viewBox="0,0,104.25,104.25"><g transform="translate(-187.875,-127.875)"><g data-paper-data="{&quot;isPaintingLayer&quot;:true}" fill-rule="nonzero" stroke-linejoin="miter" stroke-miterlimit="10" stroke-dasharray="" stroke-dashoffset="0" style="mix-blend-mode: normal"><path d="M267.15,177.55v4.9h-21.1v-4.9z" data-paper-data="{&quot;index&quot;:null}" fill="#5a585e" stroke="#3f3e41" stroke-width="2" stroke-linecap="butt"/><path d="M236.16222,177.37218c3.39734,-0.61951 11.63778,-0.92218 11.63778,-0.92218v7.1c0,0 -8.11748,-0.60179 -11.50446,-1.27013c-2.67862,-0.52856 -7.19554,-2.41987 -7.19554,-2.41987c0,0 4.4157,-2.00522 7.06222,-2.48782z" data-paper-data="{&quot;index&quot;:null}" fill="#5a585e" stroke="#3f3e41" stroke-width="2" stroke-linecap="butt"/><path d="M280.31138,169.681l2.57673,7.46796l-15.73436,6.06636c0,0 -2.9645,1.18604 -4.41356,-2.4441c-1.61361,-4.04236 1.83683,-5.02386 1.83683,-5.02386z" data-paper-data="{&quot;index&quot;:null}" fill="#5a585e" stroke="#3f3e41" stroke-width="2" stroke-linecap="butt"/><path d="M250.7,176.05v7.9h-14v-7.9z" data-paper-data="{&quot;index&quot;:null}" fill="#3f3e43" stroke="#2e2e30" stroke-width="2" stroke-linecap="butt"/><path d="M278.17482,178.49598l-0.72209,-2.02652l-1.76814,-0.56891l0.90585,-1.85107l-0.80023,-2.24581" fill="none" stroke="#3f3e41" stroke-width="2" stroke-linecap="round"/><path d="M187.875,232.125v-104.25h104.25v104.25z" fill="none" stroke="#3f3e41" stroke-width="0" stroke-linecap="butt"/></g></g></svg>
